<svg width="340" height="103" viewBox="0 0 340 103" fill="none" xmlns="http://www.w3.org/2000/svg">
<path d="M56.2679 9.71937C57.4226 10.8656 58 12.2228 58 13.7908C58 15.3558 57.4226 16.7115 56.2679 17.8577L22.4342 51.4427L56.3834 85.1423C57.4611 86.2121 58 87.5494 58 89.1542C58 90.7589 57.4226 92.1344 56.2679 93.2806C55.1132 94.4269 53.746 95 52.1663 95C50.5897 95 49.224 94.4269 48.0693 93.2806L9.2702 54.6522C8.80831 54.1937 8.48037 53.697 8.28637 53.1621C8.09545 52.6271 7.99999 52.054 7.99999 51.4427C7.99999 50.8314 8.09545 50.2582 8.28637 49.7233C8.48036 49.1884 8.80831 48.6917 9.2702 48.2332L48.1848 9.60475C49.2625 8.53492 50.5897 8 52.1663 8C53.746 8 55.1132 8.57313 56.2679 9.71937Z" fill="black"/>
<path d="M80.7427 66.076C78.4067 66.076 76.4067 65.628 74.7427 64.732C73.0787 63.836 71.7987 62.556 70.9027 60.892C70.0067 59.196 69.5587 57.164 69.5587 54.796V44.764C69.5587 41.244 70.6307 38.492 72.7747 36.508C74.9187 34.492 77.8627 33.484 81.6067 33.484C84.1347 33.484 86.3107 33.916 88.1347 34.78C89.9907 35.612 91.3667 36.796 92.2627 38.332C93.1907 39.868 93.4947 41.692 93.1747 43.804C93.1427 44.124 92.9667 44.284 92.6467 44.284H89.5267C89.1747 44.284 89.0307 44.124 89.0947 43.804C89.1907 42.332 88.9667 41.1 88.4227 40.108C87.8787 39.116 87.0467 38.364 85.9267 37.852C84.8067 37.34 83.3987 37.084 81.7027 37.084C79.0467 37.084 77.0307 37.724 75.6547 39.004C74.3107 40.284 73.6387 42.188 73.6387 44.716V54.844C73.6387 57.404 74.2787 59.324 75.5587 60.604C76.8387 61.852 78.7747 62.476 81.3667 62.476C84.0227 62.476 86.0387 61.82 87.4147 60.508C88.8227 59.196 89.5267 57.308 89.5267 54.844V53.02H82.0387C81.7187 53.02 81.5587 52.86 81.5587 52.54V49.948C81.5587 49.628 81.7187 49.468 82.0387 49.468H92.8387C92.9987 49.468 93.1107 49.516 93.1747 49.612C93.2707 49.676 93.3187 49.788 93.3187 49.948V59.404C93.3187 60.396 93.3347 61.356 93.3667 62.284C93.4307 63.18 93.5267 64.076 93.6547 64.972C93.6867 65.132 93.6547 65.26 93.5587 65.356C93.4947 65.452 93.3827 65.5 93.2227 65.5H90.6787C90.5507 65.5 90.4387 65.468 90.3427 65.404C90.2467 65.34 90.1827 65.244 90.1507 65.116C90.0867 64.7 90.0227 64.236 89.9587 63.724C89.8947 63.212 89.8467 62.668 89.8147 62.092H89.7667C89.1587 62.988 88.3907 63.74 87.4627 64.348C86.5667 64.924 85.5427 65.356 84.3907 65.644C83.2707 65.932 82.0547 66.076 80.7427 66.076ZM114.129 65.5C113.937 65.5 113.809 65.436 113.745 65.308C113.681 65.18 113.617 65.02 113.553 64.828C113.521 64.572 113.441 64.028 113.313 63.196C113.217 62.332 113.153 61.564 113.121 60.892L112.977 59.068V49.516C112.977 47.916 112.657 46.78 112.017 46.108C111.377 45.436 110.257 45.1 108.657 45.1C105.777 45.1 104.337 46.092 104.337 48.076C104.337 48.396 104.193 48.556 103.905 48.556H100.737C100.417 48.556 100.241 48.252 100.209 47.644C100.049 45.82 100.753 44.348 102.321 43.228C103.921 42.076 106.081 41.5 108.801 41.5C111.585 41.5 113.649 42.156 114.993 43.468C116.369 44.78 117.057 46.764 117.057 49.42V59.692C117.057 60.812 117.089 61.82 117.153 62.716C117.217 63.58 117.297 64.332 117.393 64.972C117.457 65.324 117.297 65.5 116.913 65.5H114.129ZM104.961 66.076C103.105 66.076 101.681 65.516 100.689 64.396C99.7293 63.276 99.2493 61.644 99.2493 59.5C99.2493 57.836 99.5693 56.476 100.209 55.42C100.881 54.364 101.937 53.548 103.377 52.972C104.849 52.396 106.801 52.012 109.233 51.82L113.745 51.436V54.556L109.137 54.94C106.929 55.132 105.409 55.532 104.577 56.14C103.745 56.748 103.329 57.772 103.329 59.212C103.329 60.3 103.553 61.116 104.001 61.66C104.449 62.204 105.121 62.476 106.017 62.476C107.073 62.476 108.177 62.124 109.329 61.42C110.481 60.684 112.001 59.34 113.889 57.388V60.988C112.769 62.204 111.713 63.196 110.721 63.964C109.761 64.7 108.817 65.228 107.889 65.548C106.961 65.9 105.985 66.076 104.961 66.076ZM124.744 65.5C124.424 65.5 124.264 65.34 124.264 65.02V47.932C124.264 47.068 124.232 46.172 124.168 45.244C124.136 44.284 124.056 43.42 123.928 42.652C123.864 42.268 124.04 42.076 124.456 42.076H127.336C127.496 42.076 127.608 42.092 127.672 42.124C127.736 42.156 127.784 42.252 127.816 42.412C127.88 42.892 127.96 43.404 128.056 43.948C128.152 44.492 128.216 45.052 128.248 45.628C129.688 44.188 131.048 43.148 132.328 42.508C133.608 41.836 134.984 41.5 136.456 41.5C138.088 41.5 139.4 41.884 140.392 42.652C141.416 43.388 142.136 44.492 142.552 45.964C144.088 44.396 145.512 43.26 146.824 42.556C148.136 41.852 149.56 41.5 151.096 41.5C153.24 41.5 154.856 42.172 155.944 43.516C157.064 44.86 157.624 46.844 157.624 49.468V65.02C157.624 65.34 157.464 65.5 157.144 65.5H154.024C153.704 65.5 153.544 65.34 153.544 65.02V49.708C153.544 48.172 153.256 47.02 152.68 46.252C152.136 45.484 151.272 45.1 150.088 45.1C149.032 45.1 147.944 45.436 146.824 46.108C145.736 46.748 144.456 47.772 142.984 49.18V65.02C142.984 65.34 142.824 65.5 142.504 65.5H139.384C139.064 65.5 138.904 65.34 138.904 65.02V49.708C138.904 48.172 138.616 47.02 138.04 46.252C137.496 45.484 136.632 45.1 135.448 45.1C134.392 45.1 133.304 45.436 132.184 46.108C131.096 46.748 129.816 47.772 128.344 49.18V65.02C128.344 65.34 128.184 65.5 127.864 65.5H124.744ZM173.739 66.076C170.667 66.076 168.299 65.356 166.635 63.916C165.003 62.476 164.187 60.348 164.187 57.532V50.812C164.187 47.772 165.003 45.468 166.635 43.9C168.267 42.3 170.635 41.5 173.739 41.5C176.843 41.5 179.195 42.284 180.795 43.852C182.427 45.388 183.243 47.628 183.243 50.572V54.316C183.243 54.636 183.083 54.796 182.763 54.796H168.267V56.332C168.267 58.476 168.715 60.044 169.611 61.036C170.507 61.996 171.963 62.476 173.979 62.476C175.483 62.476 176.635 62.236 177.435 61.756C178.267 61.244 178.683 60.508 178.683 59.548C178.683 59.196 178.859 59.02 179.211 59.02H182.331C182.587 59.02 182.747 59.164 182.811 59.452C182.939 61.5 182.187 63.116 180.555 64.3C178.923 65.484 176.651 66.076 173.739 66.076ZM168.267 51.292H179.163V51.004C179.163 48.988 178.715 47.5 177.819 46.54C176.923 45.58 175.579 45.1 173.787 45.1C171.931 45.1 170.539 45.596 169.611 46.588C168.715 47.58 168.267 49.068 168.267 51.052V51.292ZM190.182 65.5C189.862 65.5 189.702 65.34 189.702 65.02V33.196C189.702 32.876 189.862 32.716 190.182 32.716H193.302C193.622 32.716 193.782 32.876 193.782 33.196V65.02C193.782 65.34 193.622 65.5 193.302 65.5H190.182ZM209.926 66.076C206.854 66.076 204.486 65.356 202.822 63.916C201.19 62.476 200.374 60.348 200.374 57.532V50.812C200.374 47.772 201.19 45.468 202.822 43.9C204.454 42.3 206.822 41.5 209.926 41.5C213.03 41.5 215.382 42.284 216.982 43.852C218.614 45.388 219.43 47.628 219.43 50.572V54.316C219.43 54.636 219.27 54.796 218.95 54.796H204.454V56.332C204.454 58.476 204.902 60.044 205.798 61.036C206.694 61.996 208.15 62.476 210.166 62.476C211.67 62.476 212.822 62.236 213.622 61.756C214.454 61.244 214.87 60.508 214.87 59.548C214.87 59.196 215.046 59.02 215.398 59.02H218.518C218.774 59.02 218.934 59.164 218.998 59.452C219.126 61.5 218.374 63.116 216.742 64.3C215.11 65.484 212.838 66.076 209.926 66.076ZM204.454 51.292H215.35V51.004C215.35 48.988 214.902 47.5 214.006 46.54C213.11 45.58 211.766 45.1 209.974 45.1C208.118 45.1 206.726 45.596 205.798 46.588C204.902 47.58 204.454 49.068 204.454 51.052V51.292ZM226.369 65.5C226.049 65.5 225.889 65.34 225.889 65.02V42.556C225.889 42.236 226.049 42.076 226.369 42.076H229.489C229.809 42.076 229.969 42.236 229.969 42.556V65.02C229.969 65.34 229.809 65.5 229.489 65.5H226.369ZM227.953 38.14C227.025 38.14 226.353 37.9 225.937 37.42C225.521 36.908 225.313 36.268 225.313 35.5V35.02C225.313 34.252 225.521 33.628 225.937 33.148C226.353 32.636 227.025 32.38 227.953 32.38C228.881 32.38 229.553 32.636 229.969 33.148C230.385 33.628 230.593 34.252 230.593 35.02V35.5C230.593 36.268 230.385 36.908 229.969 37.42C229.553 37.9 228.881 38.14 227.953 38.14ZM237.666 65.5C237.346 65.5 237.186 65.34 237.186 65.02V47.788C237.186 46.892 237.154 46.028 237.09 45.196C237.058 44.332 236.978 43.468 236.85 42.604C236.786 42.252 236.946 42.076 237.33 42.076H240.258C240.418 42.076 240.53 42.108 240.594 42.172C240.69 42.236 240.754 42.348 240.786 42.508C240.914 43.116 241.01 43.82 241.074 44.62C241.138 45.388 241.17 46.044 241.17 46.588L241.266 49.132V65.02C241.266 65.34 241.106 65.5 240.786 65.5H237.666ZM240.738 50.572L240.642 46.636C241.314 45.644 242.082 44.764 242.946 43.996C243.842 43.228 244.738 42.62 245.634 42.172C246.562 41.724 247.41 41.5 248.178 41.5C248.754 41.5 249.186 41.548 249.474 41.644C249.634 41.676 249.73 41.74 249.762 41.836C249.826 41.9 249.874 41.996 249.906 42.124C249.97 42.796 249.986 43.484 249.954 44.188C249.954 44.892 249.906 45.564 249.81 46.204C249.778 46.364 249.698 46.476 249.57 46.54C249.474 46.604 249.346 46.62 249.186 46.588C248.93 46.524 248.658 46.476 248.37 46.444C248.082 46.412 247.778 46.396 247.458 46.396C246.658 46.396 245.858 46.572 245.058 46.924C244.258 47.276 243.49 47.772 242.754 48.412C242.018 49.02 241.346 49.74 240.738 50.572ZM267.411 65.5C267.219 65.5 267.091 65.436 267.027 65.308C266.963 65.18 266.899 65.02 266.835 64.828C266.803 64.572 266.723 64.028 266.595 63.196C266.499 62.332 266.435 61.564 266.403 60.892L266.259 59.068V49.516C266.259 47.916 265.939 46.78 265.299 46.108C264.659 45.436 263.539 45.1 261.939 45.1C259.059 45.1 257.619 46.092 257.619 48.076C257.619 48.396 257.475 48.556 257.187 48.556H254.019C253.699 48.556 253.523 48.252 253.491 47.644C253.331 45.82 254.035 44.348 255.603 43.228C257.203 42.076 259.363 41.5 262.083 41.5C264.867 41.5 266.931 42.156 268.275 43.468C269.651 44.78 270.339 46.764 270.339 49.42V59.692C270.339 60.812 270.371 61.82 270.435 62.716C270.499 63.58 270.579 64.332 270.675 64.972C270.739 65.324 270.579 65.5 270.195 65.5H267.411ZM258.243 66.076C256.387 66.076 254.963 65.516 253.971 64.396C253.011 63.276 252.531 61.644 252.531 59.5C252.531 57.836 252.851 56.476 253.491 55.42C254.163 54.364 255.219 53.548 256.659 52.972C258.131 52.396 260.083 52.012 262.515 51.82L267.027 51.436V54.556L262.419 54.94C260.211 55.132 258.691 55.532 257.859 56.14C257.027 56.748 256.611 57.772 256.611 59.212C256.611 60.3 256.835 61.116 257.283 61.66C257.731 62.204 258.403 62.476 259.299 62.476C260.355 62.476 261.459 62.124 262.611 61.42C263.763 60.684 265.283 59.34 267.171 57.388V60.988C266.051 62.204 264.995 63.196 264.003 63.964C263.043 64.7 262.099 65.228 261.171 65.548C260.243 65.9 259.267 66.076 258.243 66.076Z" fill="black"/>
<path d="M283.732 93.2806C282.577 92.1344 282 90.7772 282 89.2092C282 87.6442 282.577 86.2885 283.732 85.1423L317.566 51.5573L283.617 17.8577C282.539 16.7879 282 15.4506 282 13.8458C282 12.2411 282.577 10.8656 283.732 9.71937C284.887 8.57312 286.254 8 287.834 8C289.41 8 290.776 8.57312 291.931 9.71937L330.73 48.3478C331.192 48.8063 331.52 49.303 331.714 49.8379C331.905 50.3729 332 50.946 332 51.5573C332 52.1686 331.905 52.7418 331.714 53.2767C331.52 53.8116 331.192 54.3083 330.73 54.7668L291.815 93.3953C290.737 94.4651 289.41 95 287.834 95C286.254 95 284.887 94.4269 283.732 93.2806Z" fill="black"/>
</svg>
