<svg width="106" height="35" viewBox="0 0 106 35" fill="none" xmlns="http://www.w3.org/2000/svg">
<path d="M18.45 8.37498C18.7 8.62498 18.825 8.92098 18.825 9.26298C18.825 9.60431 18.7 9.89997 18.45 10.15L11.125 17.475L18.475 24.825C18.7083 25.0583 18.825 25.35 18.825 25.7C18.825 26.05 18.7 26.35 18.45 26.6C18.2 26.85 17.904 26.975 17.562 26.975C17.2207 26.975 16.925 26.85 16.675 26.6L8.275 18.175C8.175 18.075 8.104 17.9666 8.062 17.85C8.02066 17.7333 8 17.6083 8 17.475C8 17.3416 8.02066 17.2166 8.062 17.1C8.104 16.9833 8.17499 16.875 8.27499 16.775L16.7 8.34998C16.9333 8.11664 17.2207 7.99998 17.562 7.99998C17.904 7.99998 18.2 8.12498 18.45 8.37498Z" fill="white"/>
<path d="M30.5107 21.6315C29.9267 21.6315 29.4267 21.5195 29.0107 21.2955C28.5947 21.0715 28.2747 20.7515 28.0507 20.3355C27.8267 19.9115 27.7147 19.4035 27.7147 18.8115V16.3035C27.7147 15.4235 27.9827 14.7355 28.5187 14.2395C29.0547 13.7355 29.7907 13.4835 30.7267 13.4835C31.3587 13.4835 31.9027 13.5915 32.3587 13.8075C32.8227 14.0155 33.1667 14.3115 33.3907 14.6955C33.6227 15.0795 33.6987 15.5355 33.6187 16.0635C33.6107 16.1435 33.5667 16.1835 33.4867 16.1835H32.7067C32.6187 16.1835 32.5827 16.1435 32.5987 16.0635C32.6227 15.6955 32.5667 15.3875 32.4307 15.1395C32.2947 14.8915 32.0867 14.7035 31.8067 14.5755C31.5267 14.4475 31.1747 14.3835 30.7507 14.3835C30.0867 14.3835 29.5827 14.5435 29.2387 14.8635C28.9027 15.1835 28.7347 15.6595 28.7347 16.2915V18.8235C28.7347 19.4635 28.8947 19.9435 29.2147 20.2635C29.5347 20.5755 30.0187 20.7315 30.6667 20.7315C31.3307 20.7315 31.8347 20.5675 32.1787 20.2395C32.5307 19.9115 32.7067 19.4395 32.7067 18.8235V18.3675H30.8347C30.7547 18.3675 30.7147 18.3275 30.7147 18.2475V17.5995C30.7147 17.5195 30.7547 17.4795 30.8347 17.4795H33.5347C33.5747 17.4795 33.6027 17.4915 33.6187 17.5155C33.6427 17.5315 33.6547 17.5595 33.6547 17.5995V19.9635C33.6547 20.2115 33.6587 20.4515 33.6667 20.6835C33.6827 20.9075 33.7067 21.1315 33.7387 21.3555C33.7467 21.3955 33.7387 21.4275 33.7147 21.4515C33.6987 21.4755 33.6707 21.4875 33.6307 21.4875H32.9947C32.9627 21.4875 32.9347 21.4795 32.9107 21.4635C32.8867 21.4475 32.8707 21.4235 32.8627 21.3915C32.8467 21.2875 32.8307 21.1715 32.8147 21.0435C32.7987 20.9155 32.7867 20.7795 32.7787 20.6355H32.7667C32.6147 20.8595 32.4227 21.0475 32.1907 21.1995C31.9667 21.3435 31.7107 21.4515 31.4227 21.5235C31.1427 21.5955 30.8387 21.6315 30.5107 21.6315ZM38.8573 21.4875C38.8093 21.4875 38.7773 21.4715 38.7613 21.4395C38.7453 21.4075 38.7293 21.3675 38.7133 21.3195C38.7053 21.2555 38.6853 21.1195 38.6533 20.9115C38.6293 20.6955 38.6133 20.5035 38.6053 20.3355L38.5693 19.8795V17.4915C38.5693 17.0915 38.4893 16.8075 38.3293 16.6395C38.1693 16.4715 37.8893 16.3875 37.4893 16.3875C36.7693 16.3875 36.4093 16.6355 36.4093 17.1315C36.4093 17.2115 36.3733 17.2515 36.3013 17.2515H35.5093C35.4293 17.2515 35.3853 17.1755 35.3773 17.0235C35.3373 16.5675 35.5133 16.1995 35.9053 15.9195C36.3053 15.6315 36.8453 15.4875 37.5253 15.4875C38.2213 15.4875 38.7373 15.6515 39.0733 15.9795C39.4173 16.3075 39.5893 16.8035 39.5893 17.4675V20.0355C39.5893 20.3155 39.5973 20.5675 39.6133 20.7915C39.6293 21.0075 39.6493 21.1955 39.6733 21.3555C39.6893 21.4435 39.6493 21.4875 39.5533 21.4875H38.8573ZM36.5653 21.6315C36.1013 21.6315 35.7453 21.4915 35.4973 21.2115C35.2573 20.9315 35.1373 20.5235 35.1373 19.9875C35.1373 19.5715 35.2173 19.2315 35.3773 18.9675C35.5453 18.7035 35.8093 18.4995 36.1693 18.3555C36.5373 18.2115 37.0253 18.1155 37.6333 18.0675L38.7613 17.9715V18.7515L37.6093 18.8475C37.0573 18.8955 36.6773 18.9955 36.4693 19.1475C36.2613 19.2995 36.1573 19.5555 36.1573 19.9155C36.1573 20.1875 36.2133 20.3915 36.3253 20.5275C36.4373 20.6635 36.6053 20.7315 36.8293 20.7315C37.0933 20.7315 37.3693 20.6435 37.6573 20.4675C37.9453 20.2835 38.3253 19.9475 38.7973 19.4595V20.3595C38.5173 20.6635 38.2533 20.9115 38.0053 21.1035C37.7653 21.2875 37.5293 21.4195 37.2973 21.4995C37.0653 21.5875 36.8213 21.6315 36.5653 21.6315ZM41.511 21.4875C41.431 21.4875 41.391 21.4475 41.391 21.3675V17.0955C41.391 16.8795 41.383 16.6555 41.367 16.4235C41.359 16.1835 41.339 15.9675 41.307 15.7755C41.291 15.6795 41.335 15.6315 41.439 15.6315H42.159C42.199 15.6315 42.227 15.6355 42.243 15.6435C42.259 15.6515 42.271 15.6755 42.279 15.7155C42.295 15.8355 42.315 15.9635 42.339 16.0995C42.363 16.2355 42.379 16.3755 42.387 16.5195C42.747 16.1595 43.087 15.8995 43.407 15.7395C43.727 15.5715 44.071 15.4875 44.439 15.4875C44.847 15.4875 45.175 15.5835 45.423 15.7755C45.679 15.9595 45.859 16.2355 45.963 16.6035C46.347 16.2115 46.703 15.9275 47.031 15.7515C47.359 15.5755 47.715 15.4875 48.099 15.4875C48.635 15.4875 49.039 15.6555 49.311 15.9915C49.591 16.3275 49.731 16.8235 49.731 17.4795V21.3675C49.731 21.4475 49.691 21.4875 49.611 21.4875H48.831C48.751 21.4875 48.711 21.4475 48.711 21.3675V17.5395C48.711 17.1555 48.639 16.8675 48.495 16.6755C48.359 16.4835 48.143 16.3875 47.847 16.3875C47.583 16.3875 47.311 16.4715 47.031 16.6395C46.759 16.7995 46.439 17.0555 46.071 17.4075V21.3675C46.071 21.4475 46.031 21.4875 45.951 21.4875H45.171C45.091 21.4875 45.051 21.4475 45.051 21.3675V17.5395C45.051 17.1555 44.979 16.8675 44.835 16.6755C44.699 16.4835 44.483 16.3875 44.187 16.3875C43.923 16.3875 43.651 16.4715 43.371 16.6395C43.099 16.7995 42.779 17.0555 42.411 17.4075V21.3675C42.411 21.4475 42.371 21.4875 42.291 21.4875H41.511ZM53.7597 21.6315C52.9917 21.6315 52.3997 21.4515 51.9837 21.0915C51.5757 20.7315 51.3717 20.1995 51.3717 19.4955V17.8155C51.3717 17.0555 51.5757 16.4795 51.9837 16.0875C52.3917 15.6875 52.9837 15.4875 53.7597 15.4875C54.5357 15.4875 55.1237 15.6835 55.5237 16.0755C55.9317 16.4595 56.1357 17.0195 56.1357 17.7555V18.6915C56.1357 18.7715 56.0957 18.8115 56.0157 18.8115H52.3917V19.1955C52.3917 19.7315 52.5037 20.1235 52.7277 20.3715C52.9517 20.6115 53.3157 20.7315 53.8197 20.7315C54.1957 20.7315 54.4837 20.6715 54.6837 20.5515C54.8917 20.4235 54.9957 20.2395 54.9957 19.9995C54.9957 19.9115 55.0397 19.8675 55.1277 19.8675H55.9077C55.9717 19.8675 56.0117 19.9035 56.0277 19.9755C56.0597 20.4875 55.8717 20.8915 55.4637 21.1875C55.0557 21.4835 54.4877 21.6315 53.7597 21.6315ZM52.3917 17.9355H55.1157V17.8635C55.1157 17.3595 55.0037 16.9875 54.7797 16.7475C54.5557 16.5075 54.2197 16.3875 53.7717 16.3875C53.3077 16.3875 52.9597 16.5115 52.7277 16.7595C52.5037 17.0075 52.3917 17.3795 52.3917 17.8755V17.9355ZM57.8704 21.4875C57.7904 21.4875 57.7504 21.4475 57.7504 21.3675V13.4115C57.7504 13.3315 57.7904 13.2915 57.8704 13.2915H58.6504C58.7304 13.2915 58.7704 13.3315 58.7704 13.4115V21.3675C58.7704 21.4475 58.7304 21.4875 58.6504 21.4875H57.8704ZM62.8066 21.6315C62.0386 21.6315 61.4466 21.4515 61.0306 21.0915C60.6226 20.7315 60.4186 20.1995 60.4186 19.4955V17.8155C60.4186 17.0555 60.6226 16.4795 61.0306 16.0875C61.4386 15.6875 62.0306 15.4875 62.8066 15.4875C63.5826 15.4875 64.1706 15.6835 64.5706 16.0755C64.9786 16.4595 65.1826 17.0195 65.1826 17.7555V18.6915C65.1826 18.7715 65.1426 18.8115 65.0626 18.8115H61.4386V19.1955C61.4386 19.7315 61.5506 20.1235 61.7746 20.3715C61.9986 20.6115 62.3626 20.7315 62.8666 20.7315C63.2426 20.7315 63.5306 20.6715 63.7306 20.5515C63.9386 20.4235 64.0426 20.2395 64.0426 19.9995C64.0426 19.9115 64.0866 19.8675 64.1746 19.8675H64.9546C65.0186 19.8675 65.0586 19.9035 65.0746 19.9755C65.1066 20.4875 64.9186 20.8915 64.5106 21.1875C64.1026 21.4835 63.5346 21.6315 62.8066 21.6315ZM61.4386 17.9355H64.1626V17.8635C64.1626 17.3595 64.0506 16.9875 63.8266 16.7475C63.6026 16.5075 63.2666 16.3875 62.8186 16.3875C62.3546 16.3875 62.0066 16.5115 61.7746 16.7595C61.5506 17.0075 61.4386 17.3795 61.4386 17.8755V17.9355ZM66.9173 21.4875C66.8373 21.4875 66.7973 21.4475 66.7973 21.3675V15.7515C66.7973 15.6715 66.8373 15.6315 66.9173 15.6315H67.6973C67.7773 15.6315 67.8173 15.6715 67.8173 15.7515V21.3675C67.8173 21.4475 67.7773 21.4875 67.6973 21.4875H66.9173ZM67.3133 14.6475C67.0813 14.6475 66.9133 14.5875 66.8093 14.4675C66.7053 14.3395 66.6533 14.1795 66.6533 13.9875V13.8675C66.6533 13.6755 66.7053 13.5195 66.8093 13.3995C66.9133 13.2715 67.0813 13.2075 67.3133 13.2075C67.5453 13.2075 67.7133 13.2715 67.8173 13.3995C67.9213 13.5195 67.9733 13.6755 67.9733 13.8675V13.9875C67.9733 14.1795 67.9213 14.3395 67.8173 14.4675C67.7133 14.5875 67.5453 14.6475 67.3133 14.6475ZM69.7415 21.4875C69.6615 21.4875 69.6215 21.4475 69.6215 21.3675V17.0595C69.6215 16.8355 69.6135 16.6195 69.5975 16.4115C69.5895 16.1955 69.5695 15.9795 69.5375 15.7635C69.5215 15.6755 69.5615 15.6315 69.6575 15.6315H70.3895C70.4295 15.6315 70.4575 15.6395 70.4735 15.6555C70.4975 15.6715 70.5135 15.6995 70.5215 15.7395C70.5535 15.8915 70.5775 16.0675 70.5935 16.2675C70.6095 16.4595 70.6175 16.6235 70.6175 16.7595L70.6415 17.3955V21.3675C70.6415 21.4475 70.6015 21.4875 70.5215 21.4875H69.7415ZM70.5095 17.7555L70.4855 16.7715C70.6535 16.5235 70.8455 16.3035 71.0615 16.1115C71.2855 15.9195 71.5095 15.7675 71.7335 15.6555C71.9655 15.5435 72.1775 15.4875 72.3695 15.4875C72.5135 15.4875 72.6215 15.4995 72.6935 15.5235C72.7335 15.5315 72.7575 15.5475 72.7655 15.5715C72.7815 15.5875 72.7935 15.6115 72.8015 15.6435C72.8175 15.8115 72.8215 15.9835 72.8135 16.1595C72.8135 16.3355 72.8015 16.5035 72.7775 16.6635C72.7695 16.7035 72.7495 16.7315 72.7175 16.7475C72.6935 16.7635 72.6615 16.7675 72.6215 16.7595C72.5575 16.7435 72.4895 16.7315 72.4175 16.7235C72.3455 16.7155 72.2695 16.7115 72.1895 16.7115C71.9895 16.7115 71.7895 16.7555 71.5895 16.8435C71.3895 16.9315 71.1975 17.0555 71.0135 17.2155C70.8295 17.3675 70.6615 17.5475 70.5095 17.7555ZM77.1776 21.4875C77.1296 21.4875 77.0976 21.4715 77.0816 21.4395C77.0656 21.4075 77.0496 21.3675 77.0336 21.3195C77.0256 21.2555 77.0056 21.1195 76.9736 20.9115C76.9496 20.6955 76.9336 20.5035 76.9256 20.3355L76.8896 19.8795V17.4915C76.8896 17.0915 76.8096 16.8075 76.6496 16.6395C76.4896 16.4715 76.2096 16.3875 75.8096 16.3875C75.0896 16.3875 74.7296 16.6355 74.7296 17.1315C74.7296 17.2115 74.6936 17.2515 74.6216 17.2515H73.8296C73.7496 17.2515 73.7056 17.1755 73.6976 17.0235C73.6576 16.5675 73.8336 16.1995 74.2256 15.9195C74.6256 15.6315 75.1656 15.4875 75.8456 15.4875C76.5416 15.4875 77.0576 15.6515 77.3936 15.9795C77.7376 16.3075 77.9096 16.8035 77.9096 17.4675V20.0355C77.9096 20.3155 77.9176 20.5675 77.9336 20.7915C77.9496 21.0075 77.9696 21.1955 77.9936 21.3555C78.0096 21.4435 77.9696 21.4875 77.8736 21.4875H77.1776ZM74.8856 21.6315C74.4216 21.6315 74.0656 21.4915 73.8176 21.2115C73.5776 20.9315 73.4576 20.5235 73.4576 19.9875C73.4576 19.5715 73.5376 19.2315 73.6976 18.9675C73.8656 18.7035 74.1296 18.4995 74.4896 18.3555C74.8576 18.2115 75.3456 18.1155 75.9536 18.0675L77.0816 17.9715V18.7515L75.9296 18.8475C75.3776 18.8955 74.9976 18.9955 74.7896 19.1475C74.5816 19.2995 74.4776 19.5555 74.4776 19.9155C74.4776 20.1875 74.5336 20.3915 74.6456 20.5275C74.7576 20.6635 74.9256 20.7315 75.1496 20.7315C75.4136 20.7315 75.6896 20.6435 75.9776 20.4675C76.2656 20.2835 76.6456 19.9475 77.1176 19.4595V20.3595C76.8376 20.6635 76.5736 20.9115 76.3256 21.1035C76.0856 21.2875 75.8496 21.4195 75.6176 21.4995C75.3856 21.5875 75.1416 21.6315 74.8856 21.6315Z" fill="white"/>
<path d="M87.2 26.6C86.95 26.35 86.825 26.054 86.825 25.712C86.825 25.3707 86.95 25.075 87.2 24.825L94.525 17.5L87.175 10.15C86.9417 9.91667 86.825 9.625 86.825 9.275C86.825 8.925 86.95 8.625 87.2 8.375C87.45 8.125 87.746 8 88.088 8C88.4293 8 88.725 8.125 88.975 8.375L97.375 16.8C97.475 16.9 97.546 17.0083 97.588 17.125C97.6293 17.2417 97.65 17.3667 97.65 17.5C97.65 17.6333 97.6293 17.7583 97.588 17.875C97.546 17.9917 97.475 18.1 97.375 18.2L88.95 26.625C88.7167 26.8583 88.4293 26.975 88.088 26.975C87.746 26.975 87.45 26.85 87.2 26.6Z" fill="white"/>
</svg>
