<svg width="96" height="96" viewBox="0 0 24 24" fill="none" xmlns="http://www.w3.org/2000/svg">
<path d="M4.4265 20.4008L2.742 1.5H21.258L19.5713 20.3978L11.9888 22.5L4.4265 20.4008Z" fill="#1572B6"/>
<path d="M12 20.8934L18.1275 19.1947L19.569 3.04565H12V20.8934Z" fill="#33A9DC"/>
<path d="M12 9.89317H15.0675L15.279 7.51942H12V5.20117H17.8125L17.757 5.82292L17.1877 12.2114H12V9.89317V9.89317Z" fill="white"/>
<path d="M12.0142 15.9136L12.0037 15.9166L9.42224 15.2191L9.25724 13.3704H6.92999L7.25474 17.0101L12.003 18.3286L12.0142 18.3256V15.9136V15.9136Z" fill="#EBEBEB"/>
<path d="M14.8703 12.1133L14.5913 15.2175L12.006 15.915V18.327L16.758 17.01L16.7933 16.6185L17.196 12.1133H14.8703V12.1133Z" fill="white"/>
<path d="M12.0082 5.20117V7.51942H6.40874L6.36224 6.99817L6.25649 5.82292L6.20099 5.20117H12.0082V5.20117ZM12 9.89317V12.2114H9.45074L9.40424 11.6902L9.29924 10.5149L9.24374 9.89317H12V9.89317Z" fill="#EBEBEB"/>
</svg>
