<svg width="96" height="96" viewBox="0 0 24 24" fill="none" xmlns="http://www.w3.org/2000/svg">
<path d="M4.42651 20.4008L2.74126 1.5H21.2588L19.5713 20.3978L11.9888 22.5L4.42651 20.4008Z" fill="#E44F26"/>
<path d="M12 20.8934L18.1275 19.1947L19.569 3.04565H12V20.8934Z" fill="#F1662A"/>
<path d="M12 10.0553H8.9325L8.721 7.68153H12V5.36328H6.1875L6.243 5.98578L6.81225 12.3735H12V10.0553V10.0553ZM12 16.0755L11.9895 16.0785L9.408 15.3818L9.243 13.533H6.91575L7.2405 17.172L11.9895 18.4905L12 18.4875V16.0755Z" fill="#EBEBEB"/>
<path d="M11.9917 10.0553V12.3735H14.8462L14.5777 15.3803L11.9917 16.0778V18.4898L16.7445 17.172L16.779 16.7805L17.3235 10.6778L17.3805 10.0553H11.9917V10.0553ZM11.9917 5.36328V7.68153H17.5912L17.6377 7.16103L17.7435 5.98578L17.799 5.36328H11.9917V5.36328Z" fill="white"/>
</svg>
