<svg width="96" height="96" viewBox="0 0 25 24" fill="none" xmlns="http://www.w3.org/2000/svg">
<path d="M12.608 16.2293C14.9756 16.2293 16.895 14.3099 16.895 11.9423C16.895 9.57463 14.9756 7.65527 12.608 7.65527C10.2403 7.65527 8.32098 9.57463 8.32098 11.9423C8.32098 14.3099 10.2403 16.2293 12.608 16.2293Z" fill="#4E8EF7"/>
<path d="M21.356 4.66809C21.3562 4.38547 21.2751 4.10876 21.1223 3.87098C20.9696 3.63319 20.7516 3.44437 20.4945 3.32704C20.2374 3.20971 19.952 3.16882 19.6722 3.20926C19.3925 3.2497 19.1304 3.36975 18.917 3.55509C16.7917 1.95562 14.139 1.22149 11.4938 1.50073C8.84865 1.77997 6.40772 3.05182 4.66328 5.0598C2.91884 7.06779 2.00066 9.66253 2.0939 12.3208C2.18713 14.9791 3.28484 17.5031 5.16567 19.3839C7.04651 21.2648 9.57054 22.3625 12.2288 22.4557C14.8871 22.5489 17.4818 21.6308 19.4898 19.8863C21.4978 18.1419 22.7696 15.7009 23.0489 13.0557C23.3281 10.4105 22.594 7.75786 20.9945 5.63259C21.2277 5.36539 21.3561 5.02273 21.356 4.66809ZM12.6073 22.0891C10.9999 22.0896 9.41534 21.7082 7.98422 20.9764C6.5531 20.2446 5.31632 19.1832 4.37575 17.8797C3.43519 16.5762 2.81776 15.068 2.57431 13.4791C2.33087 11.8903 2.46838 10.2663 2.97551 8.74101C3.48265 7.21572 4.3449 5.83273 5.49125 4.70597C6.63759 3.57921 8.03523 2.74091 9.56903 2.26012C11.1028 1.77934 12.7289 1.66983 14.3133 1.94061C15.8978 2.21139 17.3952 2.85471 18.6822 3.81759C18.4812 4.10131 18.387 4.44701 18.4163 4.79351C18.4456 5.14001 18.5966 5.46496 18.8425 5.71084C19.0884 5.95673 19.4133 6.1077 19.7598 6.13703C20.1063 6.16636 20.452 6.07215 20.7357 5.87109C21.8639 7.37895 22.5499 9.17112 22.717 11.0468C22.8841 12.9226 22.5257 14.8078 21.6819 16.4913C20.8381 18.1749 19.5423 19.5902 17.9395 20.5789C16.3368 21.5676 14.4904 22.0905 12.6073 22.0891V22.0891Z" fill="#4E8EF7"/>
</svg>
