<svg width="96" height="96" viewBox="0 0 40 24" fill="none" xmlns="http://www.w3.org/2000/svg">
<g clip-path="url(#clip0_314_326)">
<path d="M19.9391 23.9307C19.8066 23.9307 19.683 23.8954 19.5681 23.8336L18.3932 23.1358C18.2165 23.0385 18.3049 23.0032 18.3579 22.9856C18.5964 22.9061 18.6406 22.8883 18.8879 22.7471C18.9144 22.7294 18.9498 22.7382 18.9763 22.7559L19.8773 23.2947C19.9127 23.3124 19.9568 23.3124 19.9833 23.2947L23.508 21.2541C23.5433 21.2365 23.561 21.2011 23.561 21.157V17.0846C23.561 17.0404 23.5433 17.0051 23.508 16.9874L19.9833 14.9557C19.948 14.9379 19.9038 14.9379 19.8773 14.9557L16.3526 16.9874C16.3173 17.0051 16.2996 17.0492 16.2996 17.0845V21.1569C16.2996 21.1923 16.3173 21.2364 16.3526 21.2541L17.3155 21.8106C17.8367 22.0756 18.1636 21.7665 18.1636 21.4573V17.4379C18.1636 17.3849 18.2077 17.3319 18.2696 17.3319H18.7201C18.7731 17.3319 18.8261 17.3761 18.8261 17.4379V21.4573C18.8261 22.1551 18.4462 22.5615 17.7837 22.5615C17.5805 22.5615 17.4216 22.5615 16.971 22.3406L16.0435 21.8106C15.8138 21.6782 15.6725 21.4308 15.6725 21.1658V17.0934C15.6725 16.8284 15.8138 16.581 16.0435 16.4485L19.5681 14.4079C19.789 14.2843 20.0894 14.2843 20.3102 14.4079L23.8348 16.4485C24.0645 16.581 24.2059 16.8284 24.2059 17.0934V21.1658C24.2059 21.4308 24.0645 21.6782 23.8348 21.8106L20.3102 23.8512C20.1953 23.9043 20.0628 23.9307 19.9392 23.9307H19.9391ZM21.0257 21.1305C19.4798 21.1305 19.1618 20.4238 19.1618 19.8231C19.1618 19.77 19.206 19.7171 19.2678 19.7171H19.7272C19.7801 19.7171 19.8243 19.7524 19.8243 19.8054C19.895 20.2736 20.0982 20.5033 21.0345 20.5033C21.7766 20.5033 22.0947 20.3354 22.0947 19.9379C22.0947 19.7082 22.0062 19.5404 20.849 19.4255C19.8861 19.3283 19.2854 19.1164 19.2854 18.3478C19.2854 17.6323 19.8862 17.2082 20.8932 17.2082C22.0239 17.2082 22.5805 17.597 22.6512 18.4449C22.6512 18.4715 22.6423 18.498 22.6247 18.5245C22.6069 18.5421 22.5805 18.5598 22.554 18.5598H22.0946C22.0504 18.5598 22.0062 18.5245 21.9974 18.4803C21.8914 17.9945 21.6176 17.8354 20.8932 17.8354C20.0805 17.8354 19.9833 18.1182 19.9833 18.3301C19.9833 18.5863 20.0982 18.6658 21.1935 18.8071C22.2801 18.9485 22.7925 19.1517 22.7925 19.9114C22.7836 20.6888 22.1476 21.1305 21.0257 21.1305Z" fill="#539E43"/>
<path d="M9.00291 8.00348C9.00291 7.8445 8.91455 7.69424 8.77322 7.61475L5.0277 5.45933C4.96579 5.42394 4.89516 5.40629 4.82454 5.39742H4.78915C4.71852 5.39742 4.64782 5.42394 4.58599 5.45933L0.84046 7.61475C0.699059 7.69424 0.610779 7.84443 0.610779 8.00348L0.619645 13.7984C0.619645 13.8779 0.663823 13.9574 0.734448 13.9928C0.805148 14.037 0.893428 14.037 0.955339 13.9928L3.18145 12.7207C3.32278 12.6412 3.41114 12.491 3.41114 12.332V9.62004C3.41114 9.46106 3.49942 9.31087 3.64082 9.23138L4.58599 8.68366C4.65669 8.63948 4.73618 8.62175 4.81567 8.62175C4.89516 8.62175 4.97465 8.63948 5.03656 8.68366L5.98173 9.23138C6.12314 9.31087 6.21142 9.46099 6.21142 9.62004V12.332C6.21142 12.491 6.29977 12.6412 6.4411 12.7207L8.66721 13.9928C8.7016 14.0144 8.74141 14.0259 8.78205 14.0259C8.82269 14.0259 8.8625 14.0144 8.89689 13.9928C8.96759 13.9574 9.01177 13.8779 9.01177 13.7984L9.00291 8.00348ZM27.0062 0.0265414C26.9356 -0.00884714 26.8472 -0.00884714 26.7853 0.0265414C26.7147 0.0707197 26.6705 0.141344 26.6705 0.220834V5.96287C26.6705 6.01584 26.6441 6.06881 26.591 6.1042C26.538 6.13064 26.485 6.13064 26.432 6.1042L25.4956 5.56534C25.427 5.52626 25.3494 5.5057 25.2704 5.5057C25.1914 5.5057 25.1137 5.52626 25.0451 5.56534L21.2995 7.72962C21.1582 7.80911 21.0699 7.95931 21.0699 8.11829V12.438C21.0699 12.597 21.1582 12.7472 21.2995 12.8267L25.0451 14.991C25.1137 15.0301 25.1914 15.0506 25.2704 15.0506C25.3494 15.0506 25.427 15.0301 25.4956 14.991L29.2412 12.8267C29.3825 12.7472 29.4709 12.597 29.4709 12.438V1.66962C29.4709 1.50178 29.3825 1.35166 29.2412 1.2721L27.0063 0.0265414H27.0062ZM26.6617 11.0158C26.6617 11.06 26.6441 11.0953 26.6087 11.1129L25.3278 11.8549C25.3099 11.8637 25.2903 11.8682 25.2704 11.8682C25.2505 11.8682 25.2308 11.8637 25.2129 11.8549L23.9321 11.1129C23.8967 11.0953 23.879 11.0511 23.879 11.0158V9.53169C23.879 9.48751 23.8967 9.4522 23.9321 9.43454L25.2129 8.69245C25.2308 8.68372 25.2505 8.67919 25.2704 8.67919C25.2903 8.67919 25.3099 8.68372 25.3278 8.69245L26.6087 9.43454C26.6441 9.45212 26.6617 9.49638 26.6617 9.53169V11.0158ZM39.4707 9.49638C39.6121 9.41689 39.6916 9.26669 39.6916 9.10764V8.05645C39.6916 7.89747 39.6032 7.74728 39.4707 7.66779L35.7517 5.51238C35.683 5.47329 35.6054 5.45273 35.5264 5.45273C35.4474 5.45273 35.3697 5.47329 35.3011 5.51238L31.5556 7.67658C31.4142 7.75607 31.3259 7.90626 31.3259 8.06524V12.385C31.3259 12.544 31.4142 12.6942 31.5556 12.7737L35.2746 14.8938C35.416 14.9733 35.5838 14.9733 35.7164 14.8938L37.9689 13.6395C38.0396 13.6041 38.0838 13.5246 38.0838 13.4451C38.0838 13.3656 38.0396 13.2862 37.9689 13.2508L34.2057 11.0865C34.135 11.0423 34.0909 10.9717 34.0909 10.8922V9.54063C34.0909 9.46114 34.135 9.38165 34.2057 9.34626L35.3806 8.67487C35.415 8.65323 35.4548 8.64174 35.4954 8.64174C35.5361 8.64174 35.5759 8.65323 35.6103 8.67487L36.7852 9.34626C36.8559 9.39044 36.9 9.46106 36.9 9.54063V10.6007C36.9 10.6802 36.9442 10.7597 37.0149 10.795C37.0493 10.8166 37.0891 10.8281 37.1297 10.8281C37.1704 10.8281 37.2102 10.8166 37.2446 10.795L39.4707 9.49638V9.49638Z" fill="#333333"/>
<path d="M35.469 9.29304C35.4821 9.28439 35.4974 9.27979 35.5131 9.27979C35.5288 9.27979 35.5442 9.28439 35.5573 9.29304L36.2729 9.70822C36.2993 9.72596 36.317 9.7524 36.317 9.78772V10.6182C36.317 10.6535 36.2994 10.68 36.2729 10.6977L35.5573 11.1128C35.5442 11.1215 35.5288 11.1261 35.5131 11.1261C35.4974 11.1261 35.4821 11.1215 35.469 11.1128L34.7535 10.6977C34.7269 10.68 34.7093 10.6535 34.7093 10.6182V9.78779C34.7093 9.7524 34.7269 9.72588 34.7535 9.7083L35.469 9.29304V9.29304Z" fill="#539E43"/>
<path d="M15.2661 5.53008C15.1974 5.49101 15.1198 5.47046 15.0408 5.47046C14.9618 5.47046 14.8842 5.49101 14.8156 5.53008L11.0966 7.67655C10.9552 7.75604 10.8757 7.90623 10.8757 8.06521V12.3673C10.8757 12.5263 10.964 12.6765 11.0966 12.756L14.8156 14.9026C14.8842 14.9417 14.9618 14.9622 15.0408 14.9622C15.1198 14.9622 15.1974 14.9417 15.2661 14.9026L18.9851 12.756C19.1265 12.6765 19.206 12.5263 19.206 12.3673V8.06529C19.206 7.90631 19.1176 7.75612 18.9851 7.67663L15.2661 5.53008Z" fill="url(#paint0_linear_314_326)"/>
</g>
<defs>
<linearGradient id="paint0_linear_314_326" x1="16.556" y1="7.13029" x2="12.4796" y2="13.5355" gradientUnits="userSpaceOnUse">
<stop stop-color="#41873F"/>
<stop offset="0.3288" stop-color="#418B3D"/>
<stop offset="0.6352" stop-color="#419637"/>
<stop offset="0.9319" stop-color="#3FA92D"/>
<stop offset="1" stop-color="#3FAE2A"/>
</linearGradient>
<clipPath id="clip0_314_326">
<rect width="39.14" height="24" fill="white" transform="translate(0.589996)"/>
</clipPath>
</defs>
</svg>
